# xmcd
#
# Track frame offsets:
#  150
#  31971
#  51085
#  69943
#  86300
#  101048
#  150136
#  170053
#  184986
#
# Disc length: 2818 seconds
#
# Revision: 0
# Processed by: cddbd v1.5.1PL0 Copyright (c) Steve Scherf et al.
# Submitted via: Collectorz.com Music Collector 6.9
#
DISCID=670b0009
DTITLE=steve earle - Mccabe's Guitar Shop - 18th Dec 1987- Disc 2
DYEAR=1987
DGENRE=
TTITLE0=Litttle Rock 'n Roller
TTITLE1=Little Sister
TTITLE2=Saturday Night Sunday Morning
TTITLE3=Fearless Heart
TTITLE4=Down The Road
TTITLE5=No. 29
TTITLE6=The Devil's Right Hand
TTITLE7=Sometimes She Forgets
TTITLE8=White Freightliner Blues
EXTD=
EXTT0=
EXTT1=
EXTT2=
EXTT3=
EXTT4=
EXTT5=
EXTT6=
EXTT7=
EXTT8=
PLAYORDER=
